{"payload":{"allShortcutsEnabled":true,"fileTree":{"":{"items":[{"name":".idea","path":".idea","contentType":"directory"},{"name":"lesson1","path":"lesson1","contentType":"directory"},{"name":".gitattributes","path":".gitattributes","contentType":"file"},{"name":".gitignore","path":".gitignore","contentType":"file"},{"name":"Java2023.iml","path":"Java2023.iml","contentType":"file"},{"name":"Диаграмма финальный проект.drawio","path":"Диаграмма финальный проект.drawio","contentType":"file"}],"totalCount":6}},"fileTreeProcessingTime":1.092338,"foldersToFetch":[],"repo":{"id":692439545,"defaultBranch":"main","name":"Java2023","ownerLogin":"CastleBasset","currentUserCanPush":true,"isFork":false,"isEmpty":false,"createdAt":"2023-09-16T16:36:44.000+03:00","ownerAvatar":"https://avatars.githubusercontent.com/u/145203142?v=4","public":true,"private":false,"isOrgOwned":false},"symbolsExpanded":false,"treeExpanded":true,"refInfo":{"name":"main","listCacheKey":"v0:1702885843.0","canEdit":true,"refType":"branch","currentOid":"474bb310af428ad94b5e5d4506f7c97eccb7f16f"},"path":"Диаграмма финальный проект.drawio","currentUser":{"id":145203142,"login":"CastleBasset","userEmail":"futuxela@gmail.com"},"blob":{"rawLines":["<mxfile host=\"app.diagrams.net\" modified=\"2024-03-02T13:20:41.497Z\" agent=\"Mozilla/5.0 (Windows NT 10.0; Win64; x64; rv:109.0) Gecko/20100101 Firefox/113.0\" etag=\"qa_oibg8CU54YzF-5f4K\" version=\"24.0.0\" type=\"device\">","  <diagram id=\"C5RBs43oDa-KdzZeNtuy\" name=\"Page-1\">","    <mxGraphModel dx=\"1684\" dy=\"434\" grid=\"1\" gridSize=\"10\" guides=\"1\" tooltips=\"1\" connect=\"1\" arrows=\"1\" fold=\"1\" page=\"1\" pageScale=\"1\" pageWidth=\"827\" pageHeight=\"1169\" math=\"0\" shadow=\"0\">","      <root>","        <mxCell id=\"WIyWlLk6GJQsqaUBKTNV-0\" />","        <mxCell id=\"WIyWlLk6GJQsqaUBKTNV-1\" parent=\"WIyWlLk6GJQsqaUBKTNV-0\" />","        <mxCell id=\"pu0jboIt42OWuD11wq39-26\" value=\"\" style=\"rounded=1;whiteSpace=wrap;html=1;\" vertex=\"1\" parent=\"WIyWlLk6GJQsqaUBKTNV-1\">","          <mxGeometry x=\"180\" y=\"120\" width=\"350\" height=\"210\" as=\"geometry\" />","        </mxCell>","        <mxCell id=\"pu0jboIt42OWuD11wq39-0\" value=\"&lt;div&gt;Platform&lt;/div&gt;\" style=\"swimlane;fontStyle=1;align=center;verticalAlign=top;childLayout=stackLayout;horizontal=1;startSize=26;horizontalStack=0;resizeParent=1;resizeParentMax=0;resizeLast=0;collapsible=1;marginBottom=0;whiteSpace=wrap;html=1;\" vertex=\"1\" parent=\"WIyWlLk6GJQsqaUBKTNV-1\">","          <mxGeometry x=\"-30\" y=\"340\" width=\"160\" height=\"130\" as=\"geometry\" />","        </mxCell>","        <mxCell id=\"pu0jboIt42OWuD11wq39-1\" value=\"&lt;div&gt;+sizeX : int&lt;/div&gt;&lt;div&gt;+sizeY : int&lt;/div&gt;&lt;div&gt;+color : Color&lt;/div&gt;&lt;div&gt;+posX : int&lt;/div&gt;&lt;div&gt;&lt;br&gt;&lt;/div&gt;&lt;div&gt;+mp&lt;br&gt;&lt;/div&gt;&lt;div&gt;&lt;br&gt;&lt;/div&gt;\" style=\"text;strokeColor=none;fillColor=none;align=left;verticalAlign=top;spacingLeft=4;spacingRight=4;overflow=hidden;rotatable=0;points=[[0,0.5],[1,0.5]];portConstraint=eastwest;whiteSpace=wrap;html=1;\" vertex=\"1\" parent=\"pu0jboIt42OWuD11wq39-0\">","          <mxGeometry y=\"26\" width=\"160\" height=\"64\" as=\"geometry\" />","        </mxCell>","        <mxCell id=\"pu0jboIt42OWuD11wq39-2\" value=\"\" style=\"line;strokeWidth=1;fillColor=none;align=left;verticalAlign=middle;spacingTop=-1;spacingLeft=3;spacingRight=3;rotatable=0;labelPosition=right;points=[];portConstraint=eastwest;strokeColor=inherit;\" vertex=\"1\" parent=\"pu0jboIt42OWuD11wq39-0\">","          <mxGeometry y=\"90\" width=\"160\" height=\"8\" as=\"geometry\" />","        </mxCell>","        <mxCell id=\"pu0jboIt42OWuD11wq39-3\" value=\"+ move(eDirection dir): void\" style=\"text;strokeColor=none;fillColor=none;align=left;verticalAlign=top;spacingLeft=4;spacingRight=4;overflow=hidden;rotatable=0;points=[[0,0.5],[1,0.5]];portConstraint=eastwest;whiteSpace=wrap;html=1;\" vertex=\"1\" parent=\"pu0jboIt42OWuD11wq39-0\">","          <mxGeometry y=\"98\" width=\"160\" height=\"32\" as=\"geometry\" />","        </mxCell>","        <mxCell id=\"pu0jboIt42OWuD11wq39-4\" value=\"eDirection\" style=\"html=1;whiteSpace=wrap;\" vertex=\"1\" parent=\"WIyWlLk6GJQsqaUBKTNV-1\">","          <mxGeometry x=\"-90\" y=\"490\" width=\"110\" height=\"50\" as=\"geometry\" />","        </mxCell>","        <mxCell id=\"pu0jboIt42OWuD11wq39-7\" value=\"Use\" style=\"endArrow=open;endSize=12;dashed=1;html=1;rounded=0;\" edge=\"1\" parent=\"WIyWlLk6GJQsqaUBKTNV-1\" source=\"pu0jboIt42OWuD11wq39-3\" target=\"pu0jboIt42OWuD11wq39-4\">","          <mxGeometry width=\"160\" relative=\"1\" as=\"geometry\">","            <mxPoint x=\"220\" y=\"550\" as=\"sourcePoint\" />","            <mxPoint x=\"380\" y=\"550\" as=\"targetPoint\" />","          </mxGeometry>","        </mxCell>","        <mxCell id=\"pu0jboIt42OWuD11wq39-14\" value=\"Rectangle\" style=\"swimlane;fontStyle=1;align=center;verticalAlign=top;childLayout=stackLayout;horizontal=1;startSize=26;horizontalStack=0;resizeParent=1;resizeParentMax=0;resizeLast=0;collapsible=1;marginBottom=0;whiteSpace=wrap;html=1;\" vertex=\"1\" parent=\"WIyWlLk6GJQsqaUBKTNV-1\">","          <mxGeometry x=\"190\" y=\"250\" width=\"160\" height=\"60\" as=\"geometry\" />","        </mxCell>","        <mxCell id=\"pu0jboIt42OWuD11wq39-16\" value=\"\" style=\"line;strokeWidth=1;fillColor=none;align=left;verticalAlign=middle;spacingTop=-1;spacingLeft=3;spacingRight=3;rotatable=0;labelPosition=right;points=[];portConstraint=eastwest;strokeColor=inherit;\" vertex=\"1\" parent=\"pu0jboIt42OWuD11wq39-14\">","          <mxGeometry y=\"26\" width=\"160\" height=\"8\" as=\"geometry\" />","        </mxCell>","        <mxCell id=\"pu0jboIt42OWuD11wq39-17\" value=\"+ Intersects(Shape): bool\" style=\"text;strokeColor=none;fillColor=none;align=left;verticalAlign=top;spacingLeft=4;spacingRight=4;overflow=hidden;rotatable=0;points=[[0,0.5],[1,0.5]];portConstraint=eastwest;whiteSpace=wrap;html=1;\" vertex=\"1\" parent=\"pu0jboIt42OWuD11wq39-14\">","          <mxGeometry y=\"34\" width=\"160\" height=\"26\" as=\"geometry\" />","        </mxCell>","        <mxCell id=\"pu0jboIt42OWuD11wq39-18\" value=\"Shape\" style=\"swimlane;fontStyle=1;align=center;verticalAlign=top;childLayout=stackLayout;horizontal=1;startSize=26;horizontalStack=0;resizeParent=1;resizeParentMax=0;resizeLast=0;collapsible=1;marginBottom=0;whiteSpace=wrap;html=1;\" vertex=\"1\" parent=\"WIyWlLk6GJQsqaUBKTNV-1\">","          <mxGeometry x=\"270\" y=\"140\" width=\"160\" height=\"60\" as=\"geometry\" />","        </mxCell>","        <mxCell id=\"pu0jboIt42OWuD11wq39-20\" value=\"\" style=\"line;strokeWidth=1;fillColor=none;align=left;verticalAlign=middle;spacingTop=-1;spacingLeft=3;spacingRight=3;rotatable=0;labelPosition=right;points=[];portConstraint=eastwest;strokeColor=inherit;\" vertex=\"1\" parent=\"pu0jboIt42OWuD11wq39-18\">","          <mxGeometry y=\"26\" width=\"160\" height=\"8\" as=\"geometry\" />","        </mxCell>","        <mxCell id=\"pu0jboIt42OWuD11wq39-21\" value=\"+ Intersects(Shape): bool\" style=\"text;strokeColor=none;fillColor=none;align=left;verticalAlign=top;spacingLeft=4;spacingRight=4;overflow=hidden;rotatable=0;points=[[0,0.5],[1,0.5]];portConstraint=eastwest;whiteSpace=wrap;html=1;\" vertex=\"1\" parent=\"pu0jboIt42OWuD11wq39-18\">","          <mxGeometry y=\"34\" width=\"160\" height=\"26\" as=\"geometry\" />","        </mxCell>","        <mxCell id=\"pu0jboIt42OWuD11wq39-22\" value=\"Circle\" style=\"swimlane;fontStyle=1;align=center;verticalAlign=top;childLayout=stackLayout;horizontal=1;startSize=26;horizontalStack=0;resizeParent=1;resizeParentMax=0;resizeLast=0;collapsible=1;marginBottom=0;whiteSpace=wrap;html=1;\" vertex=\"1\" parent=\"WIyWlLk6GJQsqaUBKTNV-1\">","          <mxGeometry x=\"360\" y=\"250\" width=\"160\" height=\"60\" as=\"geometry\" />","        </mxCell>","        <mxCell id=\"pu0jboIt42OWuD11wq39-24\" value=\"\" style=\"line;strokeWidth=1;fillColor=none;align=left;verticalAlign=middle;spacingTop=-1;spacingLeft=3;spacingRight=3;rotatable=0;labelPosition=right;points=[];portConstraint=eastwest;strokeColor=inherit;\" vertex=\"1\" parent=\"pu0jboIt42OWuD11wq39-22\">","          <mxGeometry y=\"26\" width=\"160\" height=\"8\" as=\"geometry\" />","        </mxCell>","        <mxCell id=\"pu0jboIt42OWuD11wq39-25\" value=\"+ Intersects(Shape): bool\" style=\"text;strokeColor=none;fillColor=none;align=left;verticalAlign=top;spacingLeft=4;spacingRight=4;overflow=hidden;rotatable=0;points=[[0,0.5],[1,0.5]];portConstraint=eastwest;whiteSpace=wrap;html=1;\" vertex=\"1\" parent=\"pu0jboIt42OWuD11wq39-22\">","          <mxGeometry y=\"34\" width=\"160\" height=\"26\" as=\"geometry\" />","        </mxCell>","        <mxCell id=\"pu0jboIt42OWuD11wq39-27\" value=\"Extends\" style=\"endArrow=block;endSize=16;endFill=0;html=1;rounded=0;\" edge=\"1\" parent=\"WIyWlLk6GJQsqaUBKTNV-1\" source=\"pu0jboIt42OWuD11wq39-18\" target=\"pu0jboIt42OWuD11wq39-14\">","          <mxGeometry width=\"160\" relative=\"1\" as=\"geometry\">","            <mxPoint x=\"80\" y=\"370\" as=\"sourcePoint\" />","            <mxPoint x=\"240\" y=\"370\" as=\"targetPoint\" />","          </mxGeometry>","        </mxCell>","        <mxCell id=\"pu0jboIt42OWuD11wq39-28\" value=\"Extends\" style=\"endArrow=block;endSize=16;endFill=0;html=1;rounded=0;\" edge=\"1\" parent=\"WIyWlLk6GJQsqaUBKTNV-1\" source=\"pu0jboIt42OWuD11wq39-18\" target=\"pu0jboIt42OWuD11wq39-22\">","          <mxGeometry width=\"160\" relative=\"1\" as=\"geometry\">","            <mxPoint x=\"320\" y=\"360\" as=\"sourcePoint\" />","            <mxPoint x=\"284\" y=\"410\" as=\"targetPoint\" />","          </mxGeometry>","        </mxCell>","        <mxCell id=\"pu0jboIt42OWuD11wq39-29\" value=\"Extends\" style=\"endArrow=block;endSize=16;endFill=0;html=1;rounded=0;entryX=0.563;entryY=0;entryDx=0;entryDy=0;entryPerimeter=0;\" edge=\"1\" parent=\"WIyWlLk6GJQsqaUBKTNV-1\" source=\"pu0jboIt42OWuD11wq39-14\" target=\"pu0jboIt42OWuD11wq39-0\">","          <mxGeometry width=\"160\" relative=\"1\" as=\"geometry\">","            <mxPoint x=\"350\" y=\"420\" as=\"sourcePoint\" />","            <mxPoint x=\"314\" y=\"470\" as=\"targetPoint\" />","          </mxGeometry>","        </mxCell>","        <mxCell id=\"pu0jboIt42OWuD11wq39-30\" value=\"Ball\" style=\"swimlane;fontStyle=1;align=center;verticalAlign=top;childLayout=stackLayout;horizontal=1;startSize=26;horizontalStack=0;resizeParent=1;resizeParentMax=0;resizeLast=0;collapsible=1;marginBottom=0;whiteSpace=wrap;html=1;\" vertex=\"1\" parent=\"WIyWlLk6GJQsqaUBKTNV-1\">","          <mxGeometry x=\"570\" y=\"336\" width=\"160\" height=\"134\" as=\"geometry\" />","        </mxCell>","        <mxCell id=\"pu0jboIt42OWuD11wq39-31\" value=\"&lt;div&gt;+sizeX : int&lt;/div&gt;&lt;div&gt;+sizeY : int&lt;/div&gt;&lt;div&gt;+color : Color&lt;/div&gt;&lt;div&gt;+posX : int&lt;/div&gt;&lt;div&gt;&lt;br&gt;&lt;br&gt;&lt;/div&gt;\" style=\"text;strokeColor=none;fillColor=none;align=left;verticalAlign=top;spacingLeft=4;spacingRight=4;overflow=hidden;rotatable=0;points=[[0,0.5],[1,0.5]];portConstraint=eastwest;whiteSpace=wrap;html=1;\" vertex=\"1\" parent=\"pu0jboIt42OWuD11wq39-30\">","          <mxGeometry y=\"26\" width=\"160\" height=\"74\" as=\"geometry\" />","        </mxCell>","        <mxCell id=\"pu0jboIt42OWuD11wq39-32\" value=\"\" style=\"line;strokeWidth=1;fillColor=none;align=left;verticalAlign=middle;spacingTop=-1;spacingLeft=3;spacingRight=3;rotatable=0;labelPosition=right;points=[];portConstraint=eastwest;strokeColor=inherit;\" vertex=\"1\" parent=\"pu0jboIt42OWuD11wq39-30\">","          <mxGeometry y=\"100\" width=\"160\" height=\"8\" as=\"geometry\" />","        </mxCell>","        <mxCell id=\"pu0jboIt42OWuD11wq39-33\" value=\"+ move(eDirection dir): void\" style=\"text;strokeColor=none;fillColor=none;align=left;verticalAlign=top;spacingLeft=4;spacingRight=4;overflow=hidden;rotatable=0;points=[[0,0.5],[1,0.5]];portConstraint=eastwest;whiteSpace=wrap;html=1;\" vertex=\"1\" parent=\"pu0jboIt42OWuD11wq39-30\">","          <mxGeometry y=\"108\" width=\"160\" height=\"26\" as=\"geometry\" />","        </mxCell>","        <mxCell id=\"pu0jboIt42OWuD11wq39-34\" value=\"Extends\" style=\"endArrow=block;endSize=16;endFill=0;html=1;rounded=0;entryX=0.437;entryY=0.022;entryDx=0;entryDy=0;entryPerimeter=0;\" edge=\"1\" parent=\"WIyWlLk6GJQsqaUBKTNV-1\" source=\"pu0jboIt42OWuD11wq39-22\" target=\"pu0jboIt42OWuD11wq39-30\">","          <mxGeometry width=\"160\" relative=\"1\" as=\"geometry\">","            <mxPoint x=\"460\" y=\"350\" as=\"sourcePoint\" />","            <mxPoint x=\"424\" y=\"400\" as=\"targetPoint\" />","          </mxGeometry>","        </mxCell>","        <mxCell id=\"pu0jboIt42OWuD11wq39-36\" value=\"Brick\" style=\"swimlane;fontStyle=1;align=center;verticalAlign=top;childLayout=stackLayout;horizontal=1;startSize=26;horizontalStack=0;resizeParent=1;resizeParentMax=0;resizeLast=0;collapsible=1;marginBottom=0;whiteSpace=wrap;html=1;\" vertex=\"1\" parent=\"WIyWlLk6GJQsqaUBKTNV-1\">","          <mxGeometry x=\"140\" y=\"346\" width=\"160\" height=\"124\" as=\"geometry\" />","        </mxCell>","        <mxCell id=\"pu0jboIt42OWuD11wq39-37\" value=\"&lt;div&gt;+sizeX : int&lt;/div&gt;&lt;div&gt;+sizeY : int&lt;/div&gt;&lt;div&gt;+color : Color&lt;/div&gt;&lt;div&gt;+posX : int&lt;/div&gt;&lt;div&gt;&lt;br&gt;&lt;br&gt;&lt;/div&gt;\" style=\"text;strokeColor=none;fillColor=none;align=left;verticalAlign=top;spacingLeft=4;spacingRight=4;overflow=hidden;rotatable=0;points=[[0,0.5],[1,0.5]];portConstraint=eastwest;whiteSpace=wrap;html=1;\" vertex=\"1\" parent=\"pu0jboIt42OWuD11wq39-36\">","          <mxGeometry y=\"26\" width=\"160\" height=\"64\" as=\"geometry\" />","        </mxCell>","        <mxCell id=\"pu0jboIt42OWuD11wq39-38\" value=\"\" style=\"line;strokeWidth=1;fillColor=none;align=left;verticalAlign=middle;spacingTop=-1;spacingLeft=3;spacingRight=3;rotatable=0;labelPosition=right;points=[];portConstraint=eastwest;strokeColor=inherit;\" vertex=\"1\" parent=\"pu0jboIt42OWuD11wq39-36\">","          <mxGeometry y=\"90\" width=\"160\" height=\"8\" as=\"geometry\" />","        </mxCell>","        <mxCell id=\"pu0jboIt42OWuD11wq39-39\" value=\"+ method(type): type\" style=\"text;strokeColor=none;fillColor=none;align=left;verticalAlign=top;spacingLeft=4;spacingRight=4;overflow=hidden;rotatable=0;points=[[0,0.5],[1,0.5]];portConstraint=eastwest;whiteSpace=wrap;html=1;\" vertex=\"1\" parent=\"pu0jboIt42OWuD11wq39-36\">","          <mxGeometry y=\"98\" width=\"160\" height=\"26\" as=\"geometry\" />","        </mxCell>","        <mxCell id=\"pu0jboIt42OWuD11wq39-40\" value=\"Extends\" style=\"endArrow=block;endSize=16;endFill=0;html=1;rounded=0;entryX=0.5;entryY=0;entryDx=0;entryDy=0;\" edge=\"1\" parent=\"WIyWlLk6GJQsqaUBKTNV-1\" source=\"pu0jboIt42OWuD11wq39-14\" target=\"pu0jboIt42OWuD11wq39-36\">","          <mxGeometry width=\"160\" relative=\"1\" as=\"geometry\">","            <mxPoint x=\"310\" y=\"260\" as=\"sourcePoint\" />","            <mxPoint x=\"414\" y=\"400\" as=\"targetPoint\" />","          </mxGeometry>","        </mxCell>","        <mxCell id=\"pu0jboIt42OWuD11wq39-41\" value=\"BrickMap\" style=\"swimlane;fontStyle=1;align=center;verticalAlign=top;childLayout=stackLayout;horizontal=1;startSize=26;horizontalStack=0;resizeParent=1;resizeParentMax=0;resizeLast=0;collapsible=1;marginBottom=0;whiteSpace=wrap;html=1;\" vertex=\"1\" parent=\"WIyWlLk6GJQsqaUBKTNV-1\">","          <mxGeometry x=\"350\" y=\"380\" width=\"160\" height=\"100\" as=\"geometry\" />","        </mxCell>","        <mxCell id=\"pu0jboIt42OWuD11wq39-42\" value=\"+bricks : ArrayList&amp;lt;Bricks&amp;gt;\" style=\"text;strokeColor=none;fillColor=none;align=left;verticalAlign=top;spacingLeft=4;spacingRight=4;overflow=hidden;rotatable=0;points=[[0,0.5],[1,0.5]];portConstraint=eastwest;whiteSpace=wrap;html=1;\" vertex=\"1\" parent=\"pu0jboIt42OWuD11wq39-41\">","          <mxGeometry y=\"26\" width=\"160\" height=\"26\" as=\"geometry\" />","        </mxCell>","        <mxCell id=\"pu0jboIt42OWuD11wq39-43\" value=\"\" style=\"line;strokeWidth=1;fillColor=none;align=left;verticalAlign=middle;spacingTop=-1;spacingLeft=3;spacingRight=3;rotatable=0;labelPosition=right;points=[];portConstraint=eastwest;strokeColor=inherit;\" vertex=\"1\" parent=\"pu0jboIt42OWuD11wq39-41\">","          <mxGeometry y=\"52\" width=\"160\" height=\"8\" as=\"geometry\" />","        </mxCell>","        <mxCell id=\"pu0jboIt42OWuD11wq39-44\" value=\"readMap(String filepath) : void\" style=\"text;strokeColor=none;fillColor=none;align=left;verticalAlign=top;spacingLeft=4;spacingRight=4;overflow=hidden;rotatable=0;points=[[0,0.5],[1,0.5]];portConstraint=eastwest;whiteSpace=wrap;html=1;\" vertex=\"1\" parent=\"pu0jboIt42OWuD11wq39-41\">","          <mxGeometry y=\"60\" width=\"160\" height=\"40\" as=\"geometry\" />","        </mxCell>","        <mxCell id=\"pu0jboIt42OWuD11wq39-45\" value=\"N\" style=\"endArrow=open;html=1;endSize=12;startArrow=diamondThin;startSize=14;startFill=1;edgeStyle=orthogonalEdgeStyle;align=left;verticalAlign=bottom;rounded=0;exitX=0.5;exitY=1;exitDx=0;exitDy=0;\" edge=\"1\" parent=\"WIyWlLk6GJQsqaUBKTNV-1\" source=\"pu0jboIt42OWuD11wq39-41\" target=\"pu0jboIt42OWuD11wq39-36\">","          <mxGeometry x=\"-0.75\" y=\"10\" relative=\"1\" as=\"geometry\">","            <mxPoint x=\"80\" y=\"540\" as=\"sourcePoint\" />","            <mxPoint x=\"240\" y=\"540\" as=\"targetPoint\" />","            <Array as=\"points\">","              <mxPoint x=\"430\" y=\"510\" />","              <mxPoint x=\"450\" y=\"510\" />","              <mxPoint x=\"450\" y=\"520\" />","              <mxPoint x=\"240\" y=\"520\" />","            </Array>","            <mxPoint as=\"offset\" />","          </mxGeometry>","        </mxCell>","      </root>","    </mxGraphModel>","  </diagram>","</mxfile>"],"stylingDirectives":[[],[],[],[],[],[],[],[],[],[],[],[],[],[],[],[],[],[],[],[],[],[],[],[],[],[],[],[],[],[],[],[],[],[],[],[],[],[],[],[],[],[],[],[],[],[],[],[],[],[],[],[],[],[],[],[],[],[],[],[],[],[],[],[],[],[],[],[],[],[],[],[],[],[],[],[],[],[],[],[],[],[],[],[],[],[],[],[],[],[],[],[],[],[],[],[],[],[],[],[],[],[],[],[],[],[],[],[],[],[],[],[],[],[],[],[],[],[],[],[],[],[],[],[],[],[],[],[],[],[],[],[],[],[],[],[],[],[],[],[]],"colorizedLines":null,"csv":null,"csvError":null,"dependabotInfo":{"showConfigurationBanner":null,"configFilePath":null,"networkDependabotPath":"/CastleBasset/Java2023/network/updates","dismissConfigurationNoticePath":"/settings/dismiss-notice/dependabot_configuration_notice","configurationNoticeDismissed":false},"displayName":"Диаграмма финальный проект.drawio","displayUrl":"https://github.com/CastleBasset/Java2023/blob/main/%D0%94%D0%B8%D0%B0%D0%B3%D1%80%D0%B0%D0%BC%D0%BC%D0%B0%20%D1%84%D0%B8%D0%BD%D0%B0%D0%BB%D1%8C%D0%BD%D1%8B%D0%B9%20%D0%BF%D1%80%D0%BE%D0%B5%D0%BA%D1%82.drawio?raw=true","headerInfo":{"blobSize":"15.3 KB","deleteTooltip":"Delete this file","editTooltip":"Edit this file","ghDesktopPath":"x-github-client://openRepo/https://github.com/CastleBasset/Java2023?branch=main&filepath=%D0%94%D0%B8%D0%B0%D0%B3%D1%80%D0%B0%D0%BC%D0%BC%D0%B0%20%D1%84%D0%B8%D0%BD%D0%B0%D0%BB%D1%8C%D0%BD%D1%8B%D0%B9%20%D0%BF%D1%80%D0%BE%D0%B5%D0%BA%D1%82.drawio","isGitLfs":false,"onBranch":true,"shortPath":"606a9bb","siteNavLoginPath":"/login?return_to=https%3A%2F%2Fgithub.com%2FCastleBasset%2FJava2023%2Fblob%2Fmain%2F%25D0%2594%25D0%25B8%25D0%25B0%25D0%25B3%25D1%2580%25D0%25B0%25D0%25BC%25D0%25BC%25D0%25B0%2520%25D1%2584%25D0%25B8%25D0%25BD%25D0%25B0%25D0%25BB%25D1%258C%25D0%25BD%25D1%258B%25D0%25B9%2520%25D0%25BF%25D1%2580%25D0%25BE%25D0%25B5%25D0%25BA%25D1%2582.drawio","isCSV":false,"isRichtext":false,"toc":null,"lineInfo":{"truncatedLoc":"140","truncatedSloc":"140"},"mode":"file"},"image":false,"isCodeownersFile":null,"isPlain":false,"isValidLegacyIssueTemplate":false,"issueTemplate":null,"discussionTemplate":null,"language":null,"languageID":null,"large":false,"planSupportInfo":{"repoIsFork":null,"repoOwnedByCurrentUser":null,"requestFullPath":"/CastleBasset/Java2023/blob/main/%D0%94%D0%B8%D0%B0%D0%B3%D1%80%D0%B0%D0%BC%D0%BC%D0%B0%20%D1%84%D0%B8%D0%BD%D0%B0%D0%BB%D1%8C%D0%BD%D1%8B%D0%B9%20%D0%BF%D1%80%D0%BE%D0%B5%D0%BA%D1%82.drawio","showFreeOrgGatedFeatureMessage":null,"showPlanSupportBanner":null,"upgradeDataAttributes":null,"upgradePath":null},"publishBannersInfo":{"dismissActionNoticePath":"/settings/dismiss-notice/publish_action_from_dockerfile","releasePath":"/CastleBasset/Java2023/releases/new?marketplace=true","showPublishActionBanner":false},"rawBlobUrl":"https://github.com/CastleBasset/Java2023/raw/main/%D0%94%D0%B8%D0%B0%D0%B3%D1%80%D0%B0%D0%BC%D0%BC%D0%B0%20%D1%84%D0%B8%D0%BD%D0%B0%D0%BB%D1%8C%D0%BD%D1%8B%D0%B9%20%D0%BF%D1%80%D0%BE%D0%B5%D0%BA%D1%82.drawio","renderImageOrRaw":false,"richText":null,"renderedFileInfo":null,"shortPath":null,"symbolsEnabled":true,"tabSize":8,"topBannersInfo":{"overridingGlobalFundingFile":false,"globalPreferredFundingPath":null,"showInvalidCitationWarning":false,"citationHelpUrl":"https://docs.github.com/github/creating-cloning-and-archiving-repositories/creating-a-repository-on-github/about-citation-files","actionsOnboardingTip":null},"truncated":false,"viewable":true,"workflowRedirectUrl":null,"symbols":{"timed_out":false,"not_analyzed":true,"symbols":[]}},"copilotInfo":{"documentationUrl":"https://docs.github.com/copilot/overview-of-github-copilot/about-github-copilot-for-individuals","notices":{"codeViewPopover":{"dismissed":false,"dismissPath":"/settings/dismiss-notice/code_view_copilot_popover"}},"userAccess":{"hasSubscriptionEnded":false,"orgHasCFBAccess":false,"userHasCFIAccess":false,"userHasOrgs":false,"userIsOrgAdmin":false,"userIsOrgMember":false,"business":null,"featureRequestInfo":null}},"copilotAccessAllowed":false,"csrf_tokens":{"/CastleBasset/Java2023/branches":{"post":"NJDC5elcCtccDvMlMBFl7xBriHLcuAhQ1jmpj8FxI9tQltio2wgdEyxc2G77E1KKRmA3LEbTwZebKJv_mfQ1cw"},"/repos/preferences":{"post":"OJwsmfv1En0S1GyxTim4JxxaDT5sr2xcwr-evpyUqFXcL6_Z2CUFjZFcMtWYtPKFfBJ6DH1rUx1OmJYrF6nAyA"}}},"title":"Java2023/Диаграмма финальный проект.drawio at main · CastleBasset/Java2023"}